<svg xmlns="http://www.w3.org/2000/svg" viewBox="0 0 34 34" height="34" width="34"><title>airfield.svg</title><rect fill="none" x="0" y="0" width="34" height="34"></rect><rect x="6" y="6" width="22.5" height="22.5" rx="5" ry="5" fill="#ffffff"></rect><path fill="#1f1c1c" transform="translate(9 9)" d="M6.8182,0.6818H4.7727
	C4.0909,0.6818,4.0909,0,4.7727,0h5.4545c0.6818,0,0.6818,0.6818,0,0.6818H8.1818c0,0,0.8182,0.5909,0.8182,1.9545V4h6v2L9,8l-0.5,5
	l2.5,1.3182V15H4v-0.6818L6.5,13L6,8L0,6V4h6V2.6364C6,1.2727,6.8182,0.6818,6.8182,0.6818z"></path></svg>