<svg xmlns="http://www.w3.org/2000/svg" viewBox="0 0 34 34" height="34" width="34"><title>bank-JP.svg</title><rect fill="none" x="0" y="0" width="34" height="34"></rect><rect x="6" y="6" width="22.5" height="22.5" rx="5" ry="5" fill="#ffffff"></rect><path fill="#1f1c1c" transform="translate(9 9)" d="M12.2808,3.3763l-2.9,3.625H11.25a.75.75,0,0,1,0,1.5H8.5v1h2.75a.75.75,0,0,1,0,1.5H8.5v1.25a1,1,0,0,1-2,0v-1.25H3.75a.75.75,0,1,1,0-1.5H6.5v-1H3.75a.75.75,0,0,1,0-1.5H5.6193l-2.9-3.625A1,1,0,0,1,4.2771,2.1216l.0037.0047L7.5,6.15l3.2192-4.024a1,1,0,0,1,1.5653,1.2453Z"></path></svg>