<svg xmlns="http://www.w3.org/2000/svg" viewBox="0 0 34 34" height="34" width="34"><title>barrier.svg</title><rect fill="none" x="0" y="0" width="34" height="34"></rect><rect x="6" y="6" width="22.5" height="22.5" rx="5" ry="5" fill="#ffffff"></rect><path fill="#1f1c1c" transform="translate(9 9)" d="M13,3H2A1,1,0,0,0,1,4v6a1,1,0,0,0,1,1H3v2.5a.5.5,0,0,0,1,0V13h7v.5a.5.5,0,0,0,1,0V11h1a1,1,0,0,0,1-1V4A1,1,0,0,0,13,3Zm0,1V6L11,4ZM9.5,4,13,7.5V10L7,4Zm-4,6L2,6.5V4l6,6ZM2,10V8l2,2Zm9,2H4V11h7Zm-.207-2H9.5l-6-6h2l6,6Z"></path></svg>