<svg xmlns="http://www.w3.org/2000/svg" viewBox="0 0 34 34" height="34" width="34"><title>castle-JP.svg</title><rect fill="none" x="0" y="0" width="34" height="34"></rect><rect x="6" y="6" width="22.5" height="22.5" rx="5" ry="5" fill="#ffffff"></rect><path fill="#1f1c1c" transform="translate(9 9)" d="M12.5,12.75a1,1,0,0,1-1-.9995V7.25H10a1,1,0,0,1-1-1v-2H6v2a1,1,0,0,1-1,1H3.5v4.5a1,1,0,0,1-2,0V6.25a1,1,0,0,1,1-1H4v-2a1,1,0,0,1,1-1h5a1,1,0,0,1,1,1v2h1.5a1,1,0,0,1,1,1v5.5a1,1,0,0,1-.9995,1Z"></path></svg>