<svg xmlns="http://www.w3.org/2000/svg" viewBox="0 0 34 34" height="34" width="34"><title>place-of-worship.svg</title><rect fill="none" x="0" y="0" width="34" height="34"></rect><rect x="6" y="6" width="22.5" height="22.5" rx="5" ry="5" fill="#ffffff"></rect><path fill="#1f1c1c" transform="translate(9 9)" d="M7.5,0l-2,2v2h4V2
	L7.5,0z M5.5,4.5L4,6h7L9.5,4.5H5.5z M2,6.5c-0.5523,0-1,0.4477-1,1V13h2V7.5C3,6.9477,2.5523,6.5,2,6.5z M4,6.5V13h7V6.5H4z
	 M13,6.5c-0.5523,0-1,0.4477-1,1V13h2V7.5C14,6.9477,13.5523,6.5,13,6.5z"></path></svg>