<svg xmlns="http://www.w3.org/2000/svg" viewBox="0 0 34 34" height="34" width="34"><title>religious-shinto.svg</title><rect fill="none" x="0" y="0" width="34" height="34"></rect><rect x="6" y="6" width="22.5" height="22.5" rx="5" ry="5" fill="#ffffff"></rect><path fill="#1f1c1c" transform="translate(9 9)" d="M12.5,2.5H2.5a.9448.9448,0,0,0-1,1,.9448.9448,0,0,0,1,1H3V12a.9448.9448,0,0,0,1,1,.9448.9448,0,0,0,1-1V8h5v4a.9448.9448,0,0,0,1,1,.9448.9448,0,0,0,1-1V4.5h.5a.9448.9448,0,0,0,1-1,.9448.9448,0,0,0-1-1ZM10,6H8V4.5h2ZM7,6H5V4.5H7Z"></path></svg>